<svg xmlns="http://www.w3.org/2000/svg" viewBox="0 0 815 815"><title>logo_vgz</title><g id="Layer_2" data-name="Layer 2"><g id="Layer_1-2" data-name="Layer 1"><rect width="815" height="815" style="fill:#e84428"/><polygon points="323.64 497.47 345.12 535.84 445.39 355.32 424.18 317.31 323.64 497.47" style="fill:#fff"/><polygon points="470.1 535.31 491.29 497.62 437.11 400.43 416.04 438.18 470.1 535.31" style="fill:#fff"/><path d="M435.79,699.45c-1.81-.39-3.91-1-4.52-1.11-1-.2-1.92-.46-2.87-.71a30,30,0,0,1-5.21-1.8c-4.68-2.23-9.39-5.89-11.78-10.57-.52-1-1.08-2-1.65-3L291.27,469.83a4.4,4.4,0,0,1,0-4.29l18.56-33.33,1-1v-.82l42-75.77-21.08-37.74s-42.93,77.39-60.26,108.5a2.89,2.89,0,0,1-5.05,0s-119-214.85-119-214.91H277.82a19,19,0,0,1,16.72,9.61L378,369.93l21.06-37.71-81.82-147a29.13,29.13,0,0,0-25.46-14.74H131.13a28.76,28.76,0,0,0-10.54,2A28.17,28.17,0,0,0,102.12,199a12.44,12.44,0,0,0,.23,2.16,27.82,27.82,0,0,0,1.57,7.32l-.35.34L374.92,695.53a36.91,36.91,0,0,0,31.58,18.9l.93,0a39.29,39.29,0,0,0,13.83-2.54l1.49-.67c.94-.42,1.9-.86,2.84-1.38a43.52,43.52,0,0,0,4.63-3l8.34-7.15C438.31,699.92,437.13,699.74,435.79,699.45Z" style="fill:#fff"/><path d="M694.43,172.56h0a30.25,30.25,0,0,0-10.74-2l-160.78-.05A28.48,28.48,0,0,0,498,185l-35.84,64,21.11,38,37.45-67.19a18.51,18.51,0,0,1,16.23-9.39H667.67a0,0,0,0,1,0,.06l-119.32,215a2.89,2.89,0,0,1-5.06,0c-15.65-28.17-98.82-177.81-100.43-180.62-.94-1.62-1.92-3.28-3-4.91A69.61,69.61,0,0,0,431.42,229c-8-8.29-17.13-9.35-24.81-9.29-10.23.08-17.85,3.48-23.93,10.71a65.37,65.37,0,0,0-4.17,6.18l-8.64,14.18,20.44,36.72L404.89,261a2.48,2.48,0,0,1,2.18-1.31,2.39,2.39,0,0,1,2.19,1.27L523.65,465.6a4.39,4.39,0,0,1,0,4.3L432.92,632.7l-11.08,19.88-1.47,2.64-3.12,5.52.68,1.94c1.64,4.63,3.89,9.87,7.49,13.27a32.48,32.48,0,0,0,16.81,8.45l3.5.62.1-.18,14-25.09L473,636.13,709.41,212.21A27.4,27.4,0,0,0,712.88,199,28.25,28.25,0,0,0,694.43,172.56Z" style="fill:#fff"/></g></g></svg>